Coordinates
version=1
nRows=18
nColumns=28
inDegrees=yes

Units are S.I. units (second, meters, Newtons, ...)
If the header above contains a line with 'inDegrees', this indicates whether rotational values are in degrees (yes) or radians (no).

endheader
time	pelvis_tilt	pelvis_list	pelvis_rotation	pelvis_tx	pelvis_ty	pelvis_tz	hip_flexion_r	hip_adduction_r	hip_rotation_r	knee_angle_r	knee_angle_r_ie	knee_angle_r_vv	ankle_angle_r	subtalar_angle_r	mtp_angle_r	hip_flexion_l	hip_adduction_l	hip_rotation_l	knee_angle_l	knee_angle_l_ie	knee_angle_l_vv	ankle_angle_l	subtalar_angle_l	mtp_angle_l	lumbar_extension	lumbar_bending	lumbar_rotation
      1.17000000	    -15.13523465	      2.61493739	     -4.23679123	      0.28225750	      0.53853201	      0.41654508	     89.64428257	      3.36732846	      6.84010770	   -109.63645915	    -11.40014528	      0.23684201	     45.31272167	      5.12968076	      0.00000000	     89.41357474	     -5.85889099	      0.19467661	   -107.59237724	      9.01110021	     -1.89788791	     49.33581039	     16.51870427	      0.00000000	    -41.30113488	     -1.81766967	      1.37254575
      1.17500000	    -15.28269123	      2.54857736	     -4.20682787	      0.28264068	      0.54052559	      0.41645702	     89.45708563	      3.39177129	      6.82376167	   -109.25173568	    -11.48484562	      0.24485958	     45.25237522	      5.11565247	      0.00000000	     89.27016692	     -5.84464444	      0.29408366	   -107.24043775	      9.00875834	     -1.96293171	     49.30321132	     16.54445070	      0.00000000	    -41.27790658	     -1.77572028	      1.39377083
      1.18000000	    -15.44708534	      2.47966274	     -4.17350670	      0.28306188	      0.54269323	      0.41635509	     89.26000758	      3.40880590	      6.79710689	   -108.83105920	    -11.57312972	      0.24861048	     45.18743873	      5.10349160	      0.00000000	     89.10321256	     -5.83248985	      0.32142537	   -106.83109585	      9.00861739	     -1.96304463	     49.28992543	     16.56518508	      0.00000000	    -41.20730408	     -1.72155119	      1.42444990
      1.18500000	    -15.63259223	      2.43400671	     -4.14805735	      0.28352529	      0.54502268	      0.41625158	     89.06181553	      3.42186352	      6.83077299	   -108.38520313	    -11.57716868	      0.28543525	     45.15366698	      5.11667697	      0.00000000	     88.91845551	     -5.82890271	      0.33798749	   -106.38149328	      9.00052840	     -1.98824638	     49.26528172	     16.58816434	      0.00000000	    -41.08711549	     -1.69327381	      1.43817669
      1.19000000	    -15.80346667	      2.36231315	     -4.11625745	      0.28404253	      0.54754435	      0.41612165	     88.81737579	      3.42697996	      6.70748209	   -107.87596113	    -11.76465157	      0.20926634	     45.03764448	      5.06264475	      0.00000000	     88.69524692	     -5.81571762	      0.21532905	   -105.87770824	      9.03009923	     -1.84642846	     49.28244762	     16.58494493	      0.00000000	    -40.95421643	     -1.62288276	      1.50311915
      1.19500000	    -15.98760142	      2.34120574	     -4.08685345	      0.28462135	      0.55020528	      0.41595274	     88.57369358	      3.41069472	      6.64932824	   -107.35347699	    -11.86383664	      0.13693349	     44.96977872	      5.08683404	      0.00000000	     88.45654985	     -5.78403319	      0.14529355	   -105.36030059	      9.05523003	     -1.80812809	     49.25156114	     16.59592365	      0.00000000	    -40.77432314	     -1.60155880	      1.53953941
      1.20000000	    -16.16749903	      2.32972690	     -4.06409484	      0.28525754	      0.55301129	      0.41576251	     88.30698616	      3.39046186	      6.62013846	   -106.81246369	    -11.96209585	      0.08449864	     44.90959471	      5.10400275	      0.00000000	     88.19478982	     -5.74541559	      0.09461280	   -104.82864318	      9.08585980	     -1.79709701	     49.21600615	     16.60112246	      0.00000000	    -40.56795188	     -1.58676417	      1.57910515
      1.20500000	    -16.35539986	      2.34505508	     -4.03527711	      0.28594659	      0.55591852	      0.41554378	     88.03769421	      3.34995236	      6.60564057	   -106.25522862	    -12.04223565	      0.02120594	     44.84663093	      5.12917671	      0.00000000	     87.92227375	     -5.68819064	      0.03495950	   -104.27636263	      9.11751910	     -1.80091462	     49.16625186	     16.60596449	      0.00000000	    -40.31863091	     -1.59358594	      1.60402597
      1.21000000	    -16.55586461	      2.37437546	     -4.00423513	      0.28669096	      0.55889992	      0.41529288	     87.77120131	      3.29439409	      6.60261035	   -105.68397186	    -12.12078618	     -0.03905085	     44.78340061	      5.15461479	      0.00000000	     87.64604191	     -5.61675242	     -0.03253869	   -103.70718533	      9.15303337	     -1.80703226	     49.11269401	     16.60754490	      0.00000000	    -40.02388039	     -1.61608632	      1.61341956
      1.21500000	    -16.77279813	      2.41648667	     -3.96098623	      0.28750184	      0.56192473	      0.41504240	     87.51402425	      3.22402447	      6.61839608	   -105.11061830	    -12.19079243	     -0.09296035	     44.72105904	      5.17829263	      0.00000000	     87.37139394	     -5.53443675	     -0.09038974	   -103.12315801	      9.18101464	     -1.83452550	     49.05998015	     16.61309124	      0.00000000	    -39.67348473	     -1.64564781	      1.61272112
      1.22000000	    -17.00745676	      2.45008916	     -3.91235917	      0.28838625	      0.56499309	      0.41482341	     87.26179700	      3.15029624	      6.62770092	   -104.52893347	    -12.26509391	     -0.13471095	     44.65650397	      5.19852302	      0.00000000	     87.10353025	     -5.45679737	     -0.13048714	   -102.52868059	      9.19912559	     -1.86985147	     49.00941911	     16.62443763	      0.00000000	    -39.27222720	     -1.67331237	      1.60118307
      1.22500000	    -17.24649170	      2.45988761	     -3.85861015	      0.28935580	      0.56815362	      0.41468418	     86.99226843	      3.08726506	      6.61704733	   -103.93148458	    -12.35590754	     -0.16959071	     44.58907147	      5.21462940	      0.00000000	     86.82716915	     -5.39366337	     -0.14241376	   -101.92164953	      9.20207886	     -1.90458735	     48.96028547	     16.64543660	      0.00000000	    -38.83630380	     -1.69056989	      1.59071690
      1.23000000	    -17.45682065	      2.43358251	     -3.80320208	      0.29039358	      0.57153370	      0.41466052	     86.65947539	      3.04026777	      6.56056184	   -103.29664280	    -12.48157711	     -0.20642133	     44.51423105	      5.22713038	      0.00000000	     86.50024690	     -5.35931093	     -0.12533957	   -101.29073456	      9.18515256	     -1.93636773	     48.90939224	     16.67830410	      0.00000000	    -38.42112606	     -1.69163020	      1.59263858
      1.23500000	    -17.59492542	      2.37260159	     -3.75708495	      0.29147787	      0.57527601	      0.41474480	     86.20769552	      3.01840445	      6.48864193	   -102.61826257	    -12.60508051	     -0.22971315	     44.44016547	      5.24859144	      0.00000000	     86.06851916	     -5.35663115	     -0.07263287	   -100.62369018	      9.14850240	     -1.97752081	     48.85498637	     16.72114266	      0.00000000	    -38.08579426	     -1.67484130	      1.61832914
      1.24000000	    -17.67930405	      2.30898040	     -3.70908168	      0.29258855	      0.57936736	      0.41486029	     85.66608234	      2.99044966	      6.45215460	   -101.90197469	    -12.69224427	     -0.21384528	     44.37025660	      5.25176533	      0.00000000	     85.54212800	     -5.35887142	     -0.00937712	    -99.90445066	      9.10510609	     -2.03959821	     48.79023650	     16.77283896	      0.00000000	    -37.80605282	     -1.65283844	      1.65749248
      1.24500000	    -17.69493446	      2.21300303	     -3.68973683	      0.29371770	      0.58378884	      0.41503998	     85.01607537	      2.99749810	      6.36895267	   -101.12293450	    -12.79717018	     -0.21813226	     44.27530082	      5.24781845	      0.00000000	     84.91902690	     -5.40632363	      0.06690941	    -99.15360891	      9.05773431	     -2.09728346	     48.72722950	     16.82381759	      0.00000000	    -37.60027033	     -1.61834640	      1.70550103
      1.25000000	    -17.69457189	      2.07221405	     -3.68237836	      0.29489224	      0.58841122	      0.41521397	     84.31500238	      3.02237601	      6.10695457	   -100.25627347	    -12.99529195	     -0.36141101	     44.15261637	      5.28630450	      0.00000000	     84.26208595	     -5.48247951	      0.18169840	    -98.37648434	      8.97805746	     -2.16222574	     48.69809509	     16.85968229	      0.00000000	    -37.39612648	     -1.53767480	      1.80152939
      1.25500000	    -17.63202164	      1.93454358	     -3.66762906	      0.29612651	      0.59324991	      0.41530834	     83.53522764	      3.01686084	      6.05680750	    -99.42734953	    -13.05887112	     -0.28735289	     44.06205271	      5.30686159	      0.00000000	     83.52256630	     -5.53865118	      0.28554198	    -97.57704164	      8.92729833	     -2.22168187	     48.60701008	     16.91520032	      0.00000000	    -37.25125604	     -1.45067461	      1.88846050
